HIERARCHY
ROOT Hips
{
	OFFSET 0.000000 0.000000 0.000000 
	CHANNELS 6 Xposition Yposition Zposition Zrotation Yrotation Xrotation
	JOINT LeftUpLeg
	{
		OFFSET 1.363060 -1.794630 0.839290 
		CHANNELS 3 Zrotation Yrotation Xrotation
		JOINT LeftLeg
		{
			OFFSET 2.448110 -6.726130 0.000000 
			CHANNELS 3 Zrotation Yrotation Xrotation
			JOINT LeftFoot
			{
				OFFSET 2.562200 -7.039590 0.000000 
				CHANNELS 3 Zrotation Yrotation Xrotation
				JOINT LeftToeBase
				{
					OFFSET 0.157640 -0.433110 2.322550 
					CHANNELS 3 Zrotation Yrotation Xrotation
					End Site
					{
						OFFSET 0.000000 0.000000 0.000000 
					}
				}
			}
		}
	}
	JOINT RightUpLeg
	{
		OFFSET -1.305520 -1.794630 0.839290 
		CHANNELS 3 Zrotation Yrotation Xrotation
		JOINT RightLeg
		{
			OFFSET -2.542530 -6.985550 0.000000 
			CHANNELS 3 Zrotation Yrotation Xrotation
			JOINT RightFoot
			{
				OFFSET -2.568260 -7.056230 0.000000 
				CHANNELS 3 Zrotation Yrotation Xrotation
				JOINT RightToeBase
				{
					OFFSET -0.164730 -0.452590 2.363150 
					CHANNELS 3 Zrotation Yrotation Xrotation
					End Site
					{
						OFFSET 0.000000 0.000000 0.000000 
					}
				}
			}
		}
	}
	JOINT Spine
	{
		OFFSET 0.028270 2.035590 -0.193380 
		CHANNELS 3 Zrotation Yrotation Xrotation
		JOINT Spine1
		{
			OFFSET 0.056720 2.048850 -0.042750 
			CHANNELS 3 Zrotation Yrotation Xrotation
			JOINT Neck1
			{
				OFFSET -0.054170 1.746240 0.172020 
				CHANNELS 3 Zrotation Yrotation Xrotation
				JOINT Head
				{
					OFFSET 0.104070 1.761360 -0.123970 
					CHANNELS 3 Zrotation Yrotation Xrotation
					End Site
					{
						OFFSET 0.000000 0.000000 0.000000 
					}
				}
			}
			JOINT LeftArm
			{
				OFFSET 3.362410 1.200890 -0.311210 
				CHANNELS 3 Zrotation Yrotation Xrotation
				JOINT LeftForeArm
				{
					OFFSET 4.983000 -0.000000 -0.000000 
					CHANNELS 3 Zrotation Yrotation Xrotation
					JOINT LeftHand
					{
						OFFSET 3.483560 -0.000000 -0.000000 
						CHANNELS 3 Zrotation Yrotation Xrotation
						JOINT LeftHandIndex1
						{
							OFFSET 0.715260 -0.000000 -0.000000 
							CHANNELS 3 Zrotation Yrotation Xrotation
							End Site
							{
								OFFSET 0.000000 0.000000 0.000000 
							}
						}
					}
				}
			}
			JOINT RightArm
			{
				OFFSET -3.136600 1.374050 -0.404650 
				CHANNELS 3 Zrotation Yrotation Xrotation
				JOINT RightForeArm
				{
					OFFSET -5.241900 -0.000000 -0.000000 
					CHANNELS 3 Zrotation Yrotation Xrotation
					JOINT RightHand
					{
						OFFSET -3.444170 -0.000000 -0.000000 
						CHANNELS 3 Zrotation Yrotation Xrotation
						JOINT RightHandIndex1
						{
							OFFSET -0.622530 -0.000000 -0.000000 
							CHANNELS 3 Zrotation Yrotation Xrotation
							End Site
							{
								OFFSET 0.000000 0.000000 0.000000 
							}
						}
					}
				}
			}
		}
	}
}
MOTION
Frames: 18
Frame Time: 0.041667
0.642765 17.958669 -4.238153 6.048251 44.518464 5.077381 -15.029112 -7.226413 -6.259273 -1.044072 4.556075 14.437933 1.382987 -13.071657 5.157072 0.119600 -2.229700 -6.140800 3.921304 4.853399 -12.725644 -5.224327 -13.994078 43.243520 -0.463489 0.375987 -3.173583 -0.160100 2.578100 -7.106200 1.432538 2.723305 0.846976 -0.369992 1.359191 -5.043511 0.916099 5.467458 27.084820 3.386000 0.682800 16.285200 -81.785667 -1.178502 31.945030 18.461069 -25.881457 -5.304746 -1.347354 -1.931978 4.994862 -7.125000 0.000000 0.000000 81.136352 -3.439211 6.370992 -17.862003 26.275815 -4.446743 0.493677 -0.268222 8.163741 7.125000 0.000000 0.000000 
0.668564 17.955758 -4.292461 5.902531 44.542669 4.931323 -15.099878 -7.174614 -6.692728 -0.961500 4.820435 15.177650 1.396848 -13.299778 5.066390 0.076200 -1.781100 -4.901100 4.900814 4.320663 -13.216750 -5.503490 -14.240028 44.347728 -0.746561 1.803714 -3.539928 -0.249300 3.212900 -8.872000 1.479854 2.732834 0.899299 -0.167711 1.365838 -4.976726 0.929773 5.435194 27.175722 3.404500 0.654800 16.337500 -81.686385 -1.240410 31.680372 18.489661 -25.924567 -5.323599 -1.333218 -1.893013 5.024724 -7.125000 0.000000 0.000000 81.244207 -3.465785 6.858601 -18.052872 26.515068 -4.537877 0.502163 -0.264399 8.248818 7.125000 0.000000 0.000000 
0.690247 17.951842 -4.343657 5.618076 44.604593 4.632946 -15.058064 -7.289480 -7.008869 -0.879514 5.081808 15.901546 1.410887 -13.360663 4.809448 0.072300 -1.734400 -4.772200 6.080062 3.832532 -13.581743 -5.770413 -14.461722 45.380667 -0.991951 3.070029 -3.986145 -0.363900 3.875300 -10.726200 1.539274 2.749507 0.965857 -0.005650 1.373752 -4.917950 0.897968 5.371741 27.229683 3.371900 0.629100 16.373000 -81.601729 -1.416775 31.285164 18.420695 -25.835125 -5.281975 -1.331042 -1.865237 5.149329 -7.125000 0.000000 0.000000 81.376012 -3.509735 7.131526 -18.306281 26.841921 -4.665377 0.490352 -0.254697 8.658224 7.125000 0.000000 0.000000 
0.712834 17.944916 -4.397664 5.413090 44.753782 4.428066 -15.063149 -7.455677 -7.316467 -0.800966 5.321757 16.570065 1.423184 -13.472968 4.605922 0.071900 -1.730000 -4.760000 7.194789 3.095010 -14.021317 -6.024019 -14.661242 46.330673 -1.228496 4.337872 -4.365056 -0.474000 4.415600 -12.249100 1.562308 2.730577 1.020791 0.072417 1.364612 -4.860391 0.914225 5.289822 27.230827 3.359900 0.606300 16.367600 -81.425687 -1.531895 31.041390 18.437722 -25.865951 -5.284536 -1.357484 -1.910998 5.029534 -7.125000 0.000000 0.000000 81.563291 -3.561181 7.217767 -18.580122 27.199827 -4.807934 0.469419 -0.244691 9.338368 7.125000 0.000000 0.000000 
0.737026 17.935480 -4.450868 5.415564 44.868864 4.412677 -15.226634 -7.443624 -7.704688 -0.718476 5.549223 17.215357 1.435846 -13.780633 4.477273 0.070200 -1.709300 -4.702800 8.128944 2.243883 -14.508924 -6.253570 -14.831209 47.156076 -1.479739 5.716982 -4.786737 -0.559700 4.792100 -13.316500 1.546810 2.695808 1.027311 0.147237 1.351195 -4.898402 1.019303 5.254165 27.222934 3.417100 0.598300 16.343700 -81.231271 -1.447842 30.710011 18.499422 -25.960387 -5.318522 -1.356588 -1.920100 4.941032 -7.125000 0.000000 0.000000 81.795554 -3.719288 7.349059 -18.822475 27.508417 -4.932603 0.461540 -0.239609 9.579702 7.125000 0.000000 0.000000 
0.762223 17.922932 -4.499154 5.405603 44.891451 4.352241 -15.398109 -7.417143 -8.031845 -0.634955 5.771415 17.847200 1.443825 -13.974932 4.291511 0.068900 -1.694000 -4.660900 9.097393 1.502399 -14.860483 -6.450447 -14.966062 47.840793 -1.713287 7.023444 -5.276369 -0.661500 5.201900 -14.485400 1.522246 2.688683 1.022723 0.184104 1.350893 -4.966072 1.147954 5.215016 27.234705 3.484600 0.591500 16.314200 -81.106993 -1.411009 30.090514 18.422955 -25.867792 -5.272453 -1.354364 -1.886084 5.025786 -7.125000 0.000000 0.000000 82.005205 -3.947751 7.768494 -19.031207 27.764250 -5.037680 0.469089 -0.235171 9.291438 7.125000 0.000000 0.000000 
0.788825 17.913897 -4.549446 5.298886 44.986202 4.298212 -15.477985 -7.561858 -8.386424 -0.553088 5.992941 18.474110 1.450093 -14.120741 4.168445 0.057400 -1.546100 -4.252800 10.165790 0.708139 -15.240577 -6.603172 -15.060296 48.356573 -1.893664 8.042982 -5.746767 -0.847700 5.872400 -16.414500 1.509566 2.671058 1.039280 0.175822 1.343086 -4.906195 1.220172 5.163642 27.257108 3.518000 0.576600 16.309300 -81.013461 -1.498613 29.502937 18.340064 -25.764782 -5.215432 -1.385525 -1.914830 5.037259 -7.125000 0.000000 0.000000 82.117126 -4.005755 8.242512 -19.217020 27.993696 -5.133123 0.474772 -0.226873 8.851609 7.125000 0.000000 0.000000 
0.813319 17.900245 -4.601747 5.265187 45.163983 4.284555 -15.598216 -7.708265 -8.769191 -0.459313 6.230512 19.153371 1.457633 -14.445663 4.115992 0.031000 -1.136500 -3.124500 11.181708 -0.195928 -15.602936 -6.710718 -15.115315 48.700421 -2.045819 8.937006 -6.118131 -1.089300 6.632900 -18.632300 1.486600 2.626789 1.078639 0.168284 1.322202 -4.801110 1.359316 5.078537 27.264328 3.595400 0.545200 16.319200 -80.867690 -1.551465 29.054357 18.335468 -25.768702 -5.205819 -1.407233 -1.951281 4.964527 -7.125000 0.000000 0.000000 82.243675 -3.977010 8.534621 -19.366775 28.181324 -5.211590 0.477385 -0.223064 8.494250 7.125000 0.000000 0.000000 
0.836909 17.884183 -4.645816 5.222352 45.257005 4.210133 -15.692073 -7.707873 -9.129055 -0.353732 6.478538 19.866201 1.470967 -14.842122 3.983861 0.011600 -0.695400 -1.911000 12.209489 -1.049430 -15.812162 -6.769778 -15.126698 48.858940 -2.202906 9.958869 -6.359661 -1.246500 7.078800 -19.949100 1.475534 2.661508 1.110100 0.209365 1.340478 -4.747398 1.520853 4.963072 27.291295 3.676400 0.506800 16.317500 -80.722615 -1.550930 28.646153 18.277674 -25.703695 -5.172029 -1.405043 -1.938494 4.862996 -7.125000 0.000000 0.000000 82.428540 -4.066221 8.608917 -19.497452 28.343845 -5.279800 0.479140 -0.222026 8.294244 7.125000 0.000000 0.000000 
0.862708 17.868724 -4.689684 5.113402 45.302961 4.133453 -15.723488 -7.699018 -9.530109 -0.248369 6.721064 20.564324 1.482067 -15.172769 3.881336 0.001300 -0.234200 -0.643400 13.270981 -1.863594 -15.964152 -6.772120 -15.091464 48.812908 -2.327354 10.791570 -6.579635 -1.417400 7.529300 -21.293200 1.436782 2.734899 1.091274 0.109479 1.380258 -4.785118 1.547915 4.878398 27.259736 3.654700 0.499200 16.244700 -80.521829 -1.488265 28.309107 18.218864 -25.640402 -5.137407 -1.406425 -1.945454 4.696981 -7.125000 0.000000 0.000000 82.670097 -4.252844 8.659877 -19.585918 28.452356 -5.325458 0.485156 -0.226069 8.167088 7.125000 0.000000 0.000000 
0.886600 17.853867 -4.738672 5.041644 45.395153 4.088405 -15.785690 -7.610977 -10.000068 -0.136812 6.963611 21.265861 1.493982 -15.709223 3.841901 0.000000 0.036900 0.101500 14.275813 -2.617871 -16.031794 -6.716080 -15.010128 48.559660 -2.416941 11.396401 -6.759826 -1.664000 8.128100 -23.103900 1.439438 2.695907 1.148923 0.143375 1.363022 -4.628771 1.537455 4.940095 27.182772 3.644100 0.537200 16.180200 -80.449391 -1.628843 27.579266 18.210707 -25.631855 -5.127860 -1.389432 -1.943037 4.966776 -7.125000 0.000000 0.000000 82.695572 -4.170107 9.071952 -19.617082 28.487551 -5.340174 0.496484 -0.225062 8.041581 7.125000 0.000000 0.000000 
0.906677 17.841118 -4.784849 5.025695 45.513633 4.037132 -15.880531 -7.384725 -10.509847 -0.016589 7.207076 21.978734 1.501856 -16.493042 3.897558 0.001300 0.236600 0.650100 15.234048 -3.184870 -15.909255 -6.595310 -14.874900 48.085788 -2.462697 11.833980 -6.674262 -1.983500 8.831600 -25.269900 1.402879 2.712480 1.169204 0.078393 1.375233 -4.613077 1.569946 4.874472 27.173445 3.645400 0.522600 16.152400 -80.263486 -1.663558 27.195533 18.183678 -25.606323 -5.108876 -1.446619 -1.897096 5.100038 -7.125000 0.000000 0.000000 82.796350 -4.214402 9.412092 -19.686828 28.569978 -5.376148 0.504165 -0.220568 7.650617 7.125000 0.000000 0.000000 
0.928862 17.822948 -4.830123 5.048480 45.628286 4.038691 -15.997290 -7.146645 -11.018123 0.100114 7.435045 22.652204 1.496938 -17.313491 4.039543 0.004400 0.428400 1.177200 16.099463 -3.662982 -15.706629 -6.426847 -14.698714 47.443699 -2.485957 12.267033 -6.328381 -2.110700 9.093000 -26.086700 1.344516 2.724230 1.170341 -0.049882 1.385312 -4.601670 1.655851 4.779213 27.193302 3.674100 0.498100 16.128700 -80.099602 -1.620100 27.214075 18.153560 -25.585458 -5.080851 -1.618637 -1.920322 4.244267 -7.125000 0.000000 0.000000 82.910074 -4.187023 9.641438 -19.634272 28.503518 -5.349585 0.506320 -0.216829 7.374785 7.125000 0.000000 0.000000 
0.955163 17.798253 -4.875898 5.107008 45.651501 4.093365 -16.146002 -6.786412 -11.549221 0.207372 7.637820 23.260556 1.469144 -18.161710 4.432103 0.014700 0.782800 2.151300 16.844793 -4.041067 -15.417197 -6.225488 -14.490478 46.679505 -2.502085 12.881149 -5.662451 -1.528100 7.804900 -22.123000 1.274531 2.816543 1.214642 -0.216389 1.433560 -4.443295 1.747861 4.634796 27.159010 3.708200 0.451200 16.096100 -79.964950 -1.714999 27.432657 18.200647 -25.667065 -5.097244 -1.741908 -2.117788 3.302347 -7.125000 0.000000 0.000000 83.018347 -4.030448 9.684379 -19.512618 28.358269 -5.287527 0.509528 -0.222295 7.342439 7.125000 0.000000 0.000000 
0.981966 17.776872 -4.920670 5.307426 45.579263 4.217239 -16.408186 -6.397650 -12.015444 0.307783 7.820491 23.820004 1.420219 -19.010270 4.920357 0.046700 1.394300 3.834300 17.409683 -4.238186 -15.008850 -6.000547 -14.262779 45.854786 -2.465712 13.429235 -4.468894 -0.571700 4.842200 -13.458900 1.166664 2.963453 1.284058 -0.426007 1.508388 -4.254433 1.966857 4.476763 27.177737 3.831600 0.391500 16.127700 -79.756092 -1.939842 27.396030 18.175825 -25.645819 -5.080649 -1.770518 -2.238104 3.146297 -7.125000 0.000000 0.000000 83.229334 -3.932287 9.662945 -19.473016 28.318756 -5.269025 0.512910 -0.234712 7.454230 7.125000 0.000000 0.000000 
1.010174 17.768439 -4.966947 5.538442 45.517524 4.367483 -16.677041 -6.081947 -12.392810 0.398139 7.977650 24.308357 1.363489 -19.843710 5.360542 0.088200 1.915200 5.271300 17.866953 -4.354354 -14.575442 -5.754086 -14.020172 44.985489 -2.359839 13.579454 -2.833594 -0.065900 1.656500 -4.557300 1.031648 3.055339 1.298446 -0.726704 1.559900 -4.197173 2.084128 4.429290 27.225774 3.884000 0.389700 16.135000 -79.479911 -1.985967 27.088858 18.109222 -25.567231 -5.042910 -1.758843 -2.209341 3.315948 -7.125000 0.000000 0.000000 83.479728 -3.981680 9.796576 -19.472272 28.323422 -5.271944 0.512194 -0.234091 7.435412 7.125000 0.000000 0.000000 
1.037880 17.757698 -5.018445 5.911691 45.433558 4.665422 -17.044733 -5.565385 -12.878415 0.475175 8.101959 24.698829 1.287664 -20.845945 5.849649 0.108200 2.121000 5.840200 18.091598 -4.360483 -14.166829 -5.487210 -13.798134 44.050346 -1.949557 9.507073 -3.599282 -0.005200 0.463400 -1.273400 0.889514 3.128441 1.273028 -1.003933 1.607004 -4.209734 2.055537 4.416586 27.255044 3.846700 0.401700 16.094400 -79.216361 -1.837502 26.869893 18.116742 -25.592782 -5.049045 -1.748010 -2.172787 3.345469 -7.125000 0.000000 0.000000 83.638867 -4.027435 10.000335 -19.429950 28.272301 -5.252060 0.514507 -0.229372 7.225402 7.125000 0.000000 0.000000 
1.060467 17.741636 -5.068437 6.278476 45.330124 4.916350 -17.403975 -4.882115 -13.406947 0.544896 8.210797 25.042350 1.189300 -21.920842 6.470492 0.111200 2.150600 5.921900 18.225436 -4.077573 -13.582198 -5.210675 -13.571671 43.028850 -1.342869 4.505716 -6.651922 -0.071600 1.726700 -4.751000 0.775356 3.266704 1.302802 -1.219325 1.685167 -4.138743 1.963438 4.345649 27.286198 3.805300 0.356300 16.110000 -79.004392 -1.879229 26.683819 18.056201 -25.515932 -5.017604 -1.716763 -2.086739 3.571225 -7.125000 0.000000 0.000000 83.707544 -3.931523 10.085114 -19.360524 28.189727 -5.216749 0.519731 -0.233365 7.007010 7.125000 0.000000 0.000000 
